<mxfile host="app.diagrams.net" modified="2021-02-11T07:45:15.140Z" agent="5.0 (Windows NT 10.0; Win64; x64) AppleWebKit/537.36 (KHTML, like Gecko) Chrome/88.0.4324.146 Safari/537.36" etag="Zh7eophyN3WYUDw6E8I8" version="14.3.0" type="github">
  <diagram id="vJjUmGhmgXWKlqv0WGK3" name="Page-1">
    <mxGraphModel dx="1185" dy="635" grid="1" gridSize="10" guides="1" tooltips="1" connect="1" arrows="1" fold="1" page="1" pageScale="1" pageWidth="827" pageHeight="1169" math="0" shadow="0">
      <root>
        <mxCell id="0" />
        <mxCell id="1" parent="0" />
        <mxCell id="ISjouBzL_Wpy7_zxBW1s-13" value="" style="endArrow=none;html=1;exitX=0.5;exitY=0;exitDx=0;exitDy=0;entryX=0.5;entryY=0;entryDx=0;entryDy=0;" edge="1" parent="1" source="ISjouBzL_Wpy7_zxBW1s-11" target="ISjouBzL_Wpy7_zxBW1s-7">
          <mxGeometry width="50" height="50" relative="1" as="geometry">
            <mxPoint x="419.9999999999998" y="820" as="sourcePoint" />
            <mxPoint x="423" y="40" as="targetPoint" />
          </mxGeometry>
        </mxCell>
        <mxCell id="ISjouBzL_Wpy7_zxBW1s-12" value="" style="endArrow=none;html=1;exitX=0.5;exitY=0;exitDx=0;exitDy=0;entryX=0.5;entryY=0;entryDx=0;entryDy=0;" edge="1" parent="1" source="ISjouBzL_Wpy7_zxBW1s-7" target="ISjouBzL_Wpy7_zxBW1s-1">
          <mxGeometry width="50" height="50" relative="1" as="geometry">
            <mxPoint x="400" y="710" as="sourcePoint" />
            <mxPoint x="450" y="660" as="targetPoint" />
          </mxGeometry>
        </mxCell>
        <mxCell id="ISjouBzL_Wpy7_zxBW1s-1" value="Начало" style="ellipse;whiteSpace=wrap;html=1;" vertex="1" parent="1">
          <mxGeometry x="370" y="40" width="106" height="50" as="geometry" />
        </mxCell>
        <mxCell id="ISjouBzL_Wpy7_zxBW1s-2" value="a,b,e" style="shape=parallelogram;perimeter=parallelogramPerimeter;whiteSpace=wrap;html=1;fixedSize=1;" vertex="1" parent="1">
          <mxGeometry x="360" y="120" width="120" height="60" as="geometry" />
        </mxCell>
        <mxCell id="ISjouBzL_Wpy7_zxBW1s-3" value="f(a)" style="rounded=0;whiteSpace=wrap;html=1;" vertex="1" parent="1">
          <mxGeometry x="360" y="200" width="120" height="60" as="geometry" />
        </mxCell>
        <mxCell id="ISjouBzL_Wpy7_zxBW1s-4" value="c = (a+b)/2" style="rounded=0;whiteSpace=wrap;html=1;" vertex="1" parent="1">
          <mxGeometry x="360" y="280" width="120" height="60" as="geometry" />
        </mxCell>
        <mxCell id="ISjouBzL_Wpy7_zxBW1s-5" value="f(c)" style="rounded=0;whiteSpace=wrap;html=1;" vertex="1" parent="1">
          <mxGeometry x="360" y="360" width="120" height="60" as="geometry" />
        </mxCell>
        <mxCell id="ISjouBzL_Wpy7_zxBW1s-8" value="b = c" style="rounded=0;whiteSpace=wrap;html=1;" vertex="1" parent="1">
          <mxGeometry x="363" y="540" width="120" height="60" as="geometry" />
        </mxCell>
        <mxCell id="ISjouBzL_Wpy7_zxBW1s-9" value="| a - b | &amp;lt; e" style="rhombus;whiteSpace=wrap;html=1;" vertex="1" parent="1">
          <mxGeometry x="370" y="630" width="100" height="80" as="geometry" />
        </mxCell>
        <mxCell id="ISjouBzL_Wpy7_zxBW1s-10" value="a,b" style="shape=display;whiteSpace=wrap;html=1;" vertex="1" parent="1">
          <mxGeometry x="360" y="740" width="120" height="40" as="geometry" />
        </mxCell>
        <mxCell id="ISjouBzL_Wpy7_zxBW1s-11" value="Конец" style="ellipse;whiteSpace=wrap;html=1;" vertex="1" parent="1">
          <mxGeometry x="367" y="820" width="106" height="50" as="geometry" />
        </mxCell>
        <mxCell id="ISjouBzL_Wpy7_zxBW1s-7" value="f(c)*f(a) &amp;lt; 0" style="rhombus;whiteSpace=wrap;html=1;" vertex="1" parent="1">
          <mxGeometry x="370" y="440" width="100" height="80" as="geometry" />
        </mxCell>
        <mxCell id="ISjouBzL_Wpy7_zxBW1s-14" value="" style="endArrow=classic;html=1;exitX=0;exitY=0.5;exitDx=0;exitDy=0;" edge="1" parent="1" source="ISjouBzL_Wpy7_zxBW1s-9">
          <mxGeometry width="50" height="50" relative="1" as="geometry">
            <mxPoint x="380" y="680" as="sourcePoint" />
            <mxPoint x="420" y="190" as="targetPoint" />
            <Array as="points">
              <mxPoint x="240" y="670" />
              <mxPoint x="240" y="190" />
            </Array>
          </mxGeometry>
        </mxCell>
        <mxCell id="ISjouBzL_Wpy7_zxBW1s-15" value="a = c" style="rounded=0;whiteSpace=wrap;html=1;" vertex="1" parent="1">
          <mxGeometry x="510" y="540" width="120" height="60" as="geometry" />
        </mxCell>
        <mxCell id="ISjouBzL_Wpy7_zxBW1s-16" value="" style="endArrow=classic;html=1;exitX=1;exitY=0.5;exitDx=0;exitDy=0;entryX=0.5;entryY=0;entryDx=0;entryDy=0;" edge="1" parent="1" source="ISjouBzL_Wpy7_zxBW1s-7" target="ISjouBzL_Wpy7_zxBW1s-15">
          <mxGeometry width="50" height="50" relative="1" as="geometry">
            <mxPoint x="380" y="590" as="sourcePoint" />
            <mxPoint x="430" y="540" as="targetPoint" />
            <Array as="points">
              <mxPoint x="570" y="480" />
            </Array>
          </mxGeometry>
        </mxCell>
        <mxCell id="ISjouBzL_Wpy7_zxBW1s-17" value="" style="endArrow=classic;html=1;exitX=0.5;exitY=1;exitDx=0;exitDy=0;" edge="1" parent="1" source="ISjouBzL_Wpy7_zxBW1s-15">
          <mxGeometry width="50" height="50" relative="1" as="geometry">
            <mxPoint x="380" y="590" as="sourcePoint" />
            <mxPoint x="420" y="620" as="targetPoint" />
            <Array as="points">
              <mxPoint x="570" y="620" />
            </Array>
          </mxGeometry>
        </mxCell>
      </root>
    </mxGraphModel>
  </diagram>
</mxfile>
